<svg width="190" height="52" viewBox="0 0 190 52" fill="none" xmlns="http://www.w3.org/2000/svg">
<path d="M17.47 42.395C14.6933 42.395 12.3717 41.9983 10.505 41.205C8.66167 40.4117 7.18 39.3267 6.06 37.95C4.96333 36.55 4.18167 34.9283 3.715 33.085C3.24833 31.2183 3.015 29.235 3.015 27.135C3.015 25.035 3.24833 23.0633 3.715 21.22C4.18167 19.3533 4.96333 17.7317 6.06 16.355C7.18 14.9783 8.66167 13.8933 10.505 13.1C12.3717 12.2833 14.6933 11.875 17.47 11.875C19.08 11.875 20.5267 12.0033 21.81 12.26C23.1167 12.5167 24.26 12.9133 25.24 13.45C25.94 13.8 26.465 14.2433 26.815 14.78C27.1883 15.3167 27.4217 15.9 27.515 16.53C27.6317 17.1367 27.62 17.7667 27.48 18.42C27.34 19.05 27.1067 19.6567 26.78 20.24C26.4533 20.8467 26.045 21.395 25.555 21.885C25.065 22.375 24.5167 22.76 23.91 23.04C23.3267 23.2967 22.6967 23.4367 22.02 23.46C21.3667 23.46 20.69 23.285 19.99 22.935C19.6867 22.7717 19.325 22.6433 18.905 22.55C18.485 22.4333 18.0067 22.375 17.47 22.375C16.63 22.375 15.9183 22.5033 15.335 22.76C14.7517 23.0167 14.2733 23.3667 13.9 23.81C13.55 24.2533 13.2817 24.755 13.095 25.315C12.9317 25.875 12.85 26.47 12.85 27.1C12.85 27.73 12.9317 28.3367 13.095 28.92C13.2817 29.5033 13.55 30.0167 13.9 30.46C14.2733 30.9033 14.7517 31.2533 15.335 31.51C15.9183 31.7667 16.63 31.895 17.47 31.895C18.0067 31.895 18.485 31.8483 18.905 31.755C19.325 31.6383 19.6867 31.4983 19.99 31.335C20.69 30.985 21.3783 30.8217 22.055 30.845C22.755 30.845 23.4083 30.9967 24.015 31.3C24.6217 31.6033 25.1583 32.0117 25.625 32.525C26.115 33.015 26.5233 33.575 26.85 34.205C27.1533 34.7883 27.3633 35.395 27.48 36.025C27.5967 36.655 27.5967 37.2733 27.48 37.88C27.3867 38.4633 27.1533 39.0117 26.78 39.525C26.4067 40.0617 25.8933 40.505 25.24 40.855C24.26 41.3917 23.1167 41.7767 21.81 42.01C20.5267 42.2667 19.08 42.395 17.47 42.395ZM39.52 36.165C39.5433 36.865 39.4967 37.565 39.38 38.265C39.2633 38.965 39.0183 39.6067 38.645 40.19C38.2717 40.7733 37.7583 41.24 37.105 41.59C36.4517 41.9633 35.6233 42.15 34.62 42.15C33.2667 42.15 32.1467 41.7533 31.26 40.96C30.3733 40.1667 29.8833 39.0933 29.79 37.74C29.65 34.31 29.58 30.7867 29.58 27.17C29.58 25.07 29.755 23.1217 30.105 21.325C30.455 19.505 31.0733 17.9183 31.96 16.565C32.8467 15.2117 34.0367 14.15 35.53 13.38C37.0467 12.61 38.9483 12.225 41.235 12.225C43.545 12.225 45.4467 12.61 46.94 13.38C48.4567 14.15 49.6583 15.2117 50.545 16.565C51.4317 17.9183 52.05 19.505 52.4 21.325C52.7733 23.1217 52.96 25.07 52.96 27.17C52.96 28.9667 52.9367 30.7517 52.89 32.525C52.8667 34.275 52.8083 36.0133 52.715 37.74C52.645 39.0933 52.155 40.1667 51.245 40.96C50.3583 41.7533 49.2267 42.15 47.85 42.15C46.8467 42.15 46.0183 41.9633 45.365 41.59C44.735 41.24 44.2333 40.7733 43.86 40.19C43.4867 39.6067 43.23 38.965 43.09 38.265C42.95 37.5417 42.9033 36.8417 42.95 36.165C42.5767 36.2583 42.2617 36.3283 42.005 36.375C41.7483 36.4217 41.4917 36.445 41.235 36.445C41.0017 36.445 40.745 36.4217 40.465 36.375C40.2083 36.3283 39.8933 36.2583 39.52 36.165ZM44.245 26.61C43.545 26.0733 42.7517 25.7233 41.865 25.56C41.0017 25.3967 40.1267 25.2917 39.24 25.245C39.03 25.245 38.8783 25.3033 38.785 25.42C38.6917 25.5367 38.6333 25.6767 38.61 25.84C38.5867 26.0033 38.61 26.155 38.68 26.295C38.7733 26.4117 38.89 26.4817 39.03 26.505C39.8933 26.5517 40.6983 26.6683 41.445 26.855C42.215 27.0417 43.0083 27.3567 43.825 27.8C43.9417 27.87 44.0583 27.87 44.175 27.8C44.2917 27.7067 44.385 27.59 44.455 27.45C44.525 27.31 44.5483 27.1583 44.525 26.995C44.5017 26.8317 44.4083 26.7033 44.245 26.61ZM69.4149 33.54C69.5316 33.6567 69.6949 33.6683 69.9049 33.575C70.1149 33.4817 70.1733 33.3183 70.0799 33.085C69.7533 32.3617 69.3333 31.615 68.8199 30.845C68.3066 30.075 67.7116 29.3633 67.0349 28.71C66.3583 28.0333 65.5999 27.4617 64.7599 26.995C63.9433 26.5283 63.0566 26.225 62.0999 26.085C60.0933 25.7583 58.5066 25.0583 57.3399 23.985C56.1733 22.8883 55.5899 21.3133 55.5899 19.26C55.5899 18.14 55.8699 17.125 56.4299 16.215C57.0133 15.305 57.8066 14.535 58.8099 13.905C59.8133 13.2517 61.0033 12.75 62.3799 12.4C63.7566 12.05 65.2499 11.875 66.8599 11.875C68.0733 11.875 69.3799 12.0033 70.7799 12.26C72.1799 12.4933 73.4633 12.89 74.6299 13.45C75.7966 14.01 76.7533 14.745 77.4999 15.655C78.2466 16.565 78.5733 17.685 78.4799 19.015C78.4333 19.8783 78.2466 20.6133 77.9199 21.22C77.6166 21.8033 77.2199 22.2817 76.7299 22.655C76.2399 23.005 75.6916 23.2617 75.0849 23.425C74.4783 23.5883 73.8599 23.67 73.2299 23.67C72.2733 23.67 71.4099 23.4483 70.6399 23.005C69.8933 22.5617 69.1699 22.0367 68.4699 21.43C68.0966 21.1033 67.7466 20.8 67.4199 20.52C67.0933 20.24 66.7666 19.96 66.4399 19.68C66.1366 19.4 65.8099 19.1083 65.4599 18.805C65.1333 18.5017 64.7833 18.1633 64.4099 17.79C64.2699 17.65 64.1416 17.58 64.0249 17.58C63.9083 17.58 63.8033 17.6267 63.7099 17.72C63.6399 17.79 63.6049 17.8833 63.6049 18C63.6049 18.1167 63.6633 18.2333 63.7799 18.35C64.2233 18.84 64.7366 19.3883 65.3199 19.995C65.9033 20.5783 66.5916 21.185 67.3849 21.815C68.1783 22.445 69.0883 23.075 70.1149 23.705C71.1416 24.335 72.3199 24.9183 73.6499 25.455C74.4199 25.7817 75.1666 26.2017 75.8899 26.715C76.6366 27.205 77.2783 27.8117 77.8149 28.535C78.3516 29.2583 78.7599 30.0983 79.0399 31.055C79.3433 32.0117 79.4483 33.0967 79.3549 34.31C79.2616 35.5933 78.8766 36.7367 78.1999 37.74C77.5466 38.7433 76.6833 39.5833 75.6099 40.26C74.5366 40.96 73.2999 41.485 71.8999 41.835C70.5233 42.2083 69.0649 42.395 67.5249 42.395C65.9383 42.395 64.4449 42.2083 63.0449 41.835C61.6683 41.485 60.4433 40.96 59.3699 40.26C58.3199 39.56 57.4449 38.6967 56.7449 37.67C56.0683 36.6433 55.6249 35.465 55.4149 34.135C55.2749 33.2017 55.2516 32.2917 55.3449 31.405C55.4616 30.5183 55.7183 29.725 56.1149 29.025C56.5349 28.325 57.1183 27.765 57.8649 27.345C58.6116 26.925 59.5683 26.715 60.7349 26.715C61.8316 26.715 62.8116 26.925 63.6749 27.345C64.5616 27.7417 65.3549 28.2667 66.0549 28.92C66.7549 29.55 67.3733 30.2733 67.9099 31.09C68.4466 31.9067 68.9483 32.7233 69.4149 33.54ZM91.9232 32.665C91.8765 33.4817 91.8182 34.2867 91.7482 35.08C91.7015 35.8733 91.6315 36.6667 91.5382 37.46C91.4682 38.1133 91.3282 38.72 91.1182 39.28C90.9082 39.8633 90.6049 40.365 90.2082 40.785C89.8349 41.205 89.3682 41.5317 88.8082 41.765C88.2715 42.0217 87.6415 42.15 86.9182 42.15C86.1715 42.15 85.5182 42.0217 84.9582 41.765C84.4215 41.5317 83.9549 41.205 83.5582 40.785C83.1849 40.365 82.8932 39.8633 82.6832 39.28C82.4732 38.72 82.3332 38.1133 82.2632 37.46C81.9132 34.1233 81.7382 30.6933 81.7382 27.17C81.7382 23.6467 81.9132 20.2167 82.2632 16.88C82.3332 16.2267 82.4732 15.62 82.6832 15.06C82.8932 14.5 83.1849 14.01 83.5582 13.59C83.9549 13.17 84.4215 12.8433 84.9582 12.61C85.5182 12.3533 86.1715 12.225 86.9182 12.225C87.6415 12.225 88.2715 12.3533 88.8082 12.61C89.3682 12.8433 89.8349 13.17 90.2082 13.59C90.6049 14.01 90.9082 14.5 91.1182 15.06C91.3282 15.62 91.4682 16.2267 91.5382 16.88C91.6315 17.6733 91.7015 18.4667 91.7482 19.26C91.8182 20.0533 91.8765 20.8583 91.9232 21.675C92.8099 21.465 93.7315 21.36 94.6882 21.36C95.6449 21.3367 96.5665 21.43 97.4532 21.64C97.4999 20.8233 97.5465 20.03 97.5932 19.26C97.6632 18.4667 97.7449 17.6733 97.8382 16.88C97.9082 16.2267 98.0482 15.62 98.2582 15.06C98.4915 14.5 98.7949 14.01 99.1682 13.59C99.5415 13.17 99.9965 12.8433 100.533 12.61C101.093 12.3533 101.735 12.225 102.458 12.225C103.182 12.225 103.823 12.3533 104.383 12.61C104.943 12.8433 105.41 13.17 105.783 13.59C106.18 14.01 106.483 14.5 106.693 15.06C106.927 15.62 107.078 16.2267 107.148 16.88C107.475 20.2167 107.638 23.6467 107.638 27.17C107.638 30.6933 107.475 34.1233 107.148 37.46C107.078 38.1133 106.927 38.72 106.693 39.28C106.483 39.8633 106.18 40.365 105.783 40.785C105.41 41.205 104.943 41.5317 104.383 41.765C103.823 42.0217 103.182 42.15 102.458 42.15C101.735 42.15 101.093 42.0217 100.533 41.765C99.9965 41.5317 99.5415 41.205 99.1682 40.785C98.7949 40.365 98.4915 39.8633 98.2582 39.28C98.0482 38.72 97.9082 38.1133 97.8382 37.46C97.7449 36.6667 97.6632 35.885 97.5932 35.115C97.5465 34.3217 97.4999 33.5167 97.4532 32.7C96.5665 32.91 95.6449 33.015 94.6882 33.015C93.7315 32.9917 92.8099 32.875 91.9232 32.665ZM123.927 42.395C121.5 42.395 119.412 42.0333 117.662 41.31C115.912 40.61 114.465 39.6067 113.322 38.3C112.202 36.97 111.362 35.3717 110.802 33.505C110.265 31.615 109.997 29.4917 109.997 27.135C109.997 24.7783 110.242 22.6667 110.732 20.8C111.222 18.91 112.015 17.3117 113.112 16.005C114.208 14.675 115.643 13.66 117.417 12.96C119.19 12.2367 121.36 11.875 123.927 11.875C126.493 11.875 128.663 12.2367 130.437 12.96C132.21 13.66 133.645 14.675 134.742 16.005C135.838 17.3117 136.632 18.91 137.122 20.8C137.612 22.6667 137.857 24.7783 137.857 27.135C137.857 29.4917 137.577 31.615 137.017 33.505C136.48 35.3717 135.64 36.97 134.497 38.3C133.377 39.6067 131.93 40.61 130.157 41.31C128.407 42.0333 126.33 42.395 123.927 42.395ZM122.667 29.41C122.573 29.5267 122.562 29.6433 122.632 29.76C122.702 29.8767 122.807 29.9583 122.947 30.005C123.087 30.0517 123.238 30.0633 123.402 30.04C123.588 30.0167 123.74 29.935 123.857 29.795C124.347 29.095 124.673 28.3017 124.837 27.415C125 26.5283 125.093 25.6417 125.117 24.755C125.117 24.545 125.058 24.3933 124.942 24.3C124.825 24.2067 124.685 24.16 124.522 24.16C124.382 24.1367 124.242 24.16 124.102 24.23C123.962 24.3 123.892 24.405 123.892 24.545C123.845 25.4083 123.728 26.225 123.542 26.995C123.355 27.765 123.063 28.57 122.667 29.41ZM150.336 32.245C150.29 33.1083 150.231 33.9717 150.161 34.835C150.091 35.6983 150.021 36.5617 149.951 37.425C149.881 38.0783 149.741 38.685 149.531 39.245C149.321 39.8283 149.018 40.33 148.621 40.75C148.248 41.17 147.781 41.4967 147.221 41.73C146.685 41.9867 146.055 42.115 145.331 42.115C144.585 42.115 143.931 41.9867 143.371 41.73C142.835 41.4967 142.368 41.17 141.971 40.75C141.598 40.33 141.306 39.8283 141.096 39.245C140.886 38.685 140.746 38.0783 140.676 37.425C140.326 34.0883 140.151 30.6933 140.151 27.24C140.175 23.7867 140.35 20.3917 140.676 17.055C140.77 16.215 140.968 15.5033 141.271 14.92C141.575 14.3367 141.96 13.8583 142.426 13.485C142.893 13.1117 143.418 12.8317 144.001 12.645C144.608 12.435 145.25 12.2833 145.926 12.19C146.743 12.0967 147.571 12.0267 148.411 11.98C149.275 11.91 150.115 11.875 150.931 11.875C152.565 11.8517 154.175 11.945 155.761 12.155C157.371 12.365 158.806 12.82 160.066 13.52C161.35 14.22 162.376 15.2467 163.146 16.6C163.94 17.9533 164.336 19.7617 164.336 22.025C164.336 23.6117 164.15 24.965 163.776 26.085C163.426 27.205 162.925 28.15 162.271 28.92C161.641 29.6667 160.883 30.2733 159.996 30.74C159.133 31.1833 158.176 31.5217 157.126 31.755C156.1 31.9883 155.003 32.14 153.836 32.21C152.693 32.2567 151.526 32.2683 150.336 32.245ZM150.336 22.76C151.783 23.5067 153.335 23.7983 154.991 23.635C155.201 23.6117 155.341 23.53 155.411 23.39C155.505 23.25 155.551 23.11 155.551 22.97C155.551 22.8067 155.505 22.6667 155.411 22.55C155.341 22.4333 155.236 22.375 155.096 22.375C154.233 22.4217 153.463 22.375 152.786 22.235C152.11 22.095 151.398 21.8617 150.651 21.535C150.511 21.465 150.383 21.4767 150.266 21.57C150.15 21.64 150.056 21.745 149.986 21.885C149.94 22.025 149.94 22.1883 149.986 22.375C150.033 22.5383 150.15 22.6667 150.336 22.76ZM176.429 21.15C175.053 20.8 174.224 20.275 173.944 19.575C173.664 18.8517 173.711 18.035 174.084 17.125C174.248 16.7283 174.434 16.3783 174.644 16.075C174.854 15.7483 175.111 15.5033 175.414 15.34C175.741 15.1533 176.114 15.06 176.534 15.06C176.978 15.06 177.503 15.1767 178.109 15.41C178.086 14.0567 178.366 13.135 178.949 12.645C179.533 12.1317 180.326 11.875 181.329 11.875C182.333 11.875 183.114 12.1317 183.674 12.645C184.258 13.135 184.538 14.0567 184.514 15.41C185.121 15.1767 185.634 15.06 186.054 15.06C186.498 15.06 186.871 15.1533 187.174 15.34C187.501 15.5033 187.769 15.7483 187.979 16.075C188.189 16.3783 188.388 16.7283 188.574 17.125C188.924 18.035 188.948 18.8517 188.644 19.575C188.364 20.275 187.548 20.8 186.194 21.15C186.568 21.5467 186.836 21.9667 186.999 22.41C187.186 22.8533 187.256 23.285 187.209 23.705C187.186 24.125 187.058 24.5217 186.824 24.895C186.591 25.245 186.264 25.56 185.844 25.84C185.028 26.3767 184.211 26.5283 183.394 26.295C182.578 26.0617 181.889 25.525 181.329 24.685C180.746 25.525 180.046 26.0617 179.229 26.295C178.413 26.5283 177.596 26.3767 176.779 25.84C176.359 25.56 176.033 25.245 175.799 24.895C175.566 24.5217 175.426 24.125 175.379 23.705C175.356 23.285 175.426 22.8533 175.589 22.41C175.776 21.9667 176.056 21.5467 176.429 21.15Z" fill="#6346FF"/>
<path d="M15.47 40.395C12.6933 40.395 10.3717 39.9983 8.505 39.205C6.66167 38.4117 5.18 37.3267 4.06 35.95C2.96333 34.55 2.18167 32.9283 1.715 31.085C1.24833 29.2183 1.015 27.235 1.015 25.135C1.015 23.035 1.24833 21.0633 1.715 19.22C2.18167 17.3533 2.96333 15.7317 4.06 14.355C5.18 12.9783 6.66167 11.8933 8.505 11.1C10.3717 10.2833 12.6933 9.875 15.47 9.875C17.08 9.875 18.5267 10.0033 19.81 10.26C21.1167 10.5167 22.26 10.9133 23.24 11.45C23.94 11.8 24.465 12.2433 24.815 12.78C25.1883 13.3167 25.4217 13.9 25.515 14.53C25.6317 15.1367 25.62 15.7667 25.48 16.42C25.34 17.05 25.1067 17.6567 24.78 18.24C24.4533 18.8467 24.045 19.395 23.555 19.885C23.065 20.375 22.5167 20.76 21.91 21.04C21.3267 21.2967 20.6967 21.4367 20.02 21.46C19.3667 21.46 18.69 21.285 17.99 20.935C17.6867 20.7717 17.325 20.6433 16.905 20.55C16.485 20.4333 16.0067 20.375 15.47 20.375C14.63 20.375 13.9183 20.5033 13.335 20.76C12.7517 21.0167 12.2733 21.3667 11.9 21.81C11.55 22.2533 11.2817 22.755 11.095 23.315C10.9317 23.875 10.85 24.47 10.85 25.1C10.85 25.73 10.9317 26.3367 11.095 26.92C11.2817 27.5033 11.55 28.0167 11.9 28.46C12.2733 28.9033 12.7517 29.2533 13.335 29.51C13.9183 29.7667 14.63 29.895 15.47 29.895C16.0067 29.895 16.485 29.8483 16.905 29.755C17.325 29.6383 17.6867 29.4983 17.99 29.335C18.69 28.985 19.3783 28.8217 20.055 28.845C20.755 28.845 21.4083 28.9967 22.015 29.3C22.6217 29.6033 23.1583 30.0117 23.625 30.525C24.115 31.015 24.5233 31.575 24.85 32.205C25.1533 32.7883 25.3633 33.395 25.48 34.025C25.5967 34.655 25.5967 35.2733 25.48 35.88C25.3867 36.4633 25.1533 37.0117 24.78 37.525C24.4067 38.0617 23.8933 38.505 23.24 38.855C22.26 39.3917 21.1167 39.7767 19.81 40.01C18.5267 40.2667 17.08 40.395 15.47 40.395ZM37.52 34.165C37.5433 34.865 37.4967 35.565 37.38 36.265C37.2633 36.965 37.0183 37.6067 36.645 38.19C36.2717 38.7733 35.7583 39.24 35.105 39.59C34.4517 39.9633 33.6233 40.15 32.62 40.15C31.2667 40.15 30.1467 39.7533 29.26 38.96C28.3733 38.1667 27.8833 37.0933 27.79 35.74C27.65 32.31 27.58 28.7867 27.58 25.17C27.58 23.07 27.755 21.1217 28.105 19.325C28.455 17.505 29.0733 15.9183 29.96 14.565C30.8467 13.2117 32.0367 12.15 33.53 11.38C35.0467 10.61 36.9483 10.225 39.235 10.225C41.545 10.225 43.4467 10.61 44.94 11.38C46.4567 12.15 47.6583 13.2117 48.545 14.565C49.4317 15.9183 50.05 17.505 50.4 19.325C50.7733 21.1217 50.96 23.07 50.96 25.17C50.96 26.9667 50.9367 28.7517 50.89 30.525C50.8667 32.275 50.8083 34.0133 50.715 35.74C50.645 37.0933 50.155 38.1667 49.245 38.96C48.3583 39.7533 47.2267 40.15 45.85 40.15C44.8467 40.15 44.0183 39.9633 43.365 39.59C42.735 39.24 42.2333 38.7733 41.86 38.19C41.4867 37.6067 41.23 36.965 41.09 36.265C40.95 35.5417 40.9033 34.8417 40.95 34.165C40.5767 34.2583 40.2617 34.3283 40.005 34.375C39.7483 34.4217 39.4917 34.445 39.235 34.445C39.0017 34.445 38.745 34.4217 38.465 34.375C38.2083 34.3283 37.8933 34.2583 37.52 34.165ZM42.245 24.61C41.545 24.0733 40.7517 23.7233 39.865 23.56C39.0017 23.3967 38.1267 23.2917 37.24 23.245C37.03 23.245 36.8783 23.3033 36.785 23.42C36.6917 23.5367 36.6333 23.6767 36.61 23.84C36.5867 24.0033 36.61 24.155 36.68 24.295C36.7733 24.4117 36.89 24.4817 37.03 24.505C37.8933 24.5517 38.6983 24.6683 39.445 24.855C40.215 25.0417 41.0083 25.3567 41.825 25.8C41.9417 25.87 42.0583 25.87 42.175 25.8C42.2917 25.7067 42.385 25.59 42.455 25.45C42.525 25.31 42.5483 25.1583 42.525 24.995C42.5017 24.8317 42.4083 24.7033 42.245 24.61ZM67.4149 31.54C67.5316 31.6567 67.6949 31.6683 67.9049 31.575C68.1149 31.4817 68.1733 31.3183 68.0799 31.085C67.7533 30.3617 67.3333 29.615 66.8199 28.845C66.3066 28.075 65.7116 27.3633 65.0349 26.71C64.3583 26.0333 63.5999 25.4617 62.7599 24.995C61.9433 24.5283 61.0566 24.225 60.0999 24.085C58.0933 23.7583 56.5066 23.0583 55.3399 21.985C54.1733 20.8883 53.5899 19.3133 53.5899 17.26C53.5899 16.14 53.8699 15.125 54.4299 14.215C55.0133 13.305 55.8066 12.535 56.8099 11.905C57.8133 11.2517 59.0033 10.75 60.3799 10.4C61.7566 10.05 63.2499 9.875 64.8599 9.875C66.0733 9.875 67.3799 10.0033 68.7799 10.26C70.1799 10.4933 71.4633 10.89 72.6299 11.45C73.7966 12.01 74.7533 12.745 75.4999 13.655C76.2466 14.565 76.5733 15.685 76.4799 17.015C76.4333 17.8783 76.2466 18.6133 75.9199 19.22C75.6166 19.8033 75.2199 20.2817 74.7299 20.655C74.2399 21.005 73.6916 21.2617 73.0849 21.425C72.4783 21.5883 71.8599 21.67 71.2299 21.67C70.2733 21.67 69.4099 21.4483 68.6399 21.005C67.8933 20.5617 67.1699 20.0367 66.4699 19.43C66.0966 19.1033 65.7466 18.8 65.4199 18.52C65.0933 18.24 64.7666 17.96 64.4399 17.68C64.1366 17.4 63.8099 17.1083 63.4599 16.805C63.1333 16.5017 62.7833 16.1633 62.4099 15.79C62.2699 15.65 62.1416 15.58 62.0249 15.58C61.9083 15.58 61.8033 15.6267 61.7099 15.72C61.6399 15.79 61.6049 15.8833 61.6049 16C61.6049 16.1167 61.6633 16.2333 61.7799 16.35C62.2233 16.84 62.7366 17.3883 63.3199 17.995C63.9033 18.5783 64.5916 19.185 65.3849 19.815C66.1783 20.445 67.0883 21.075 68.1149 21.705C69.1416 22.335 70.3199 22.9183 71.6499 23.455C72.4199 23.7817 73.1666 24.2017 73.8899 24.715C74.6366 25.205 75.2783 25.8117 75.8149 26.535C76.3516 27.2583 76.7599 28.0983 77.0399 29.055C77.3433 30.0117 77.4483 31.0967 77.3549 32.31C77.2616 33.5933 76.8766 34.7367 76.1999 35.74C75.5466 36.7433 74.6833 37.5833 73.6099 38.26C72.5366 38.96 71.2999 39.485 69.8999 39.835C68.5233 40.2083 67.0649 40.395 65.5249 40.395C63.9383 40.395 62.4449 40.2083 61.0449 39.835C59.6683 39.485 58.4433 38.96 57.3699 38.26C56.3199 37.56 55.4449 36.6967 54.7449 35.67C54.0683 34.6433 53.6249 33.465 53.4149 32.135C53.2749 31.2017 53.2516 30.2917 53.3449 29.405C53.4616 28.5183 53.7183 27.725 54.1149 27.025C54.5349 26.325 55.1183 25.765 55.8649 25.345C56.6116 24.925 57.5683 24.715 58.7349 24.715C59.8316 24.715 60.8116 24.925 61.6749 25.345C62.5616 25.7417 63.3549 26.2667 64.0549 26.92C64.7549 27.55 65.3733 28.2733 65.9099 29.09C66.4466 29.9067 66.9483 30.7233 67.4149 31.54ZM89.9232 30.665C89.8765 31.4817 89.8182 32.2867 89.7482 33.08C89.7015 33.8733 89.6315 34.6667 89.5382 35.46C89.4682 36.1133 89.3282 36.72 89.1182 37.28C88.9082 37.8633 88.6049 38.365 88.2082 38.785C87.8349 39.205 87.3682 39.5317 86.8082 39.765C86.2715 40.0217 85.6415 40.15 84.9182 40.15C84.1715 40.15 83.5182 40.0217 82.9582 39.765C82.4215 39.5317 81.9549 39.205 81.5582 38.785C81.1849 38.365 80.8932 37.8633 80.6832 37.28C80.4732 36.72 80.3332 36.1133 80.2632 35.46C79.9132 32.1233 79.7382 28.6933 79.7382 25.17C79.7382 21.6467 79.9132 18.2167 80.2632 14.88C80.3332 14.2267 80.4732 13.62 80.6832 13.06C80.8932 12.5 81.1849 12.01 81.5582 11.59C81.9549 11.17 82.4215 10.8433 82.9582 10.61C83.5182 10.3533 84.1715 10.225 84.9182 10.225C85.6415 10.225 86.2715 10.3533 86.8082 10.61C87.3682 10.8433 87.8349 11.17 88.2082 11.59C88.6049 12.01 88.9082 12.5 89.1182 13.06C89.3282 13.62 89.4682 14.2267 89.5382 14.88C89.6315 15.6733 89.7015 16.4667 89.7482 17.26C89.8182 18.0533 89.8765 18.8583 89.9232 19.675C90.8099 19.465 91.7315 19.36 92.6882 19.36C93.6449 19.3367 94.5665 19.43 95.4532 19.64C95.4999 18.8233 95.5465 18.03 95.5932 17.26C95.6632 16.4667 95.7449 15.6733 95.8382 14.88C95.9082 14.2267 96.0482 13.62 96.2582 13.06C96.4915 12.5 96.7949 12.01 97.1682 11.59C97.5415 11.17 97.9965 10.8433 98.5332 10.61C99.0932 10.3533 99.7349 10.225 100.458 10.225C101.182 10.225 101.823 10.3533 102.383 10.61C102.943 10.8433 103.41 11.17 103.783 11.59C104.18 12.01 104.483 12.5 104.693 13.06C104.927 13.62 105.078 14.2267 105.148 14.88C105.475 18.2167 105.638 21.6467 105.638 25.17C105.638 28.6933 105.475 32.1233 105.148 35.46C105.078 36.1133 104.927 36.72 104.693 37.28C104.483 37.8633 104.18 38.365 103.783 38.785C103.41 39.205 102.943 39.5317 102.383 39.765C101.823 40.0217 101.182 40.15 100.458 40.15C99.7349 40.15 99.0932 40.0217 98.5332 39.765C97.9965 39.5317 97.5415 39.205 97.1682 38.785C96.7949 38.365 96.4915 37.8633 96.2582 37.28C96.0482 36.72 95.9082 36.1133 95.8382 35.46C95.7449 34.6667 95.6632 33.885 95.5932 33.115C95.5465 32.3217 95.4999 31.5167 95.4532 30.7C94.5665 30.91 93.6449 31.015 92.6882 31.015C91.7315 30.9917 90.8099 30.875 89.9232 30.665ZM121.927 40.395C119.5 40.395 117.412 40.0333 115.662 39.31C113.912 38.61 112.465 37.6067 111.322 36.3C110.202 34.97 109.362 33.3717 108.802 31.505C108.265 29.615 107.997 27.4917 107.997 25.135C107.997 22.7783 108.242 20.6667 108.732 18.8C109.222 16.91 110.015 15.3117 111.112 14.005C112.208 12.675 113.643 11.66 115.417 10.96C117.19 10.2367 119.36 9.875 121.927 9.875C124.493 9.875 126.663 10.2367 128.437 10.96C130.21 11.66 131.645 12.675 132.742 14.005C133.838 15.3117 134.632 16.91 135.122 18.8C135.612 20.6667 135.857 22.7783 135.857 25.135C135.857 27.4917 135.577 29.615 135.017 31.505C134.48 33.3717 133.64 34.97 132.497 36.3C131.377 37.6067 129.93 38.61 128.157 39.31C126.407 40.0333 124.33 40.395 121.927 40.395ZM120.667 27.41C120.573 27.5267 120.562 27.6433 120.632 27.76C120.702 27.8767 120.807 27.9583 120.947 28.005C121.087 28.0517 121.238 28.0633 121.402 28.04C121.588 28.0167 121.74 27.935 121.857 27.795C122.347 27.095 122.673 26.3017 122.837 25.415C123 24.5283 123.093 23.6417 123.117 22.755C123.117 22.545 123.058 22.3933 122.942 22.3C122.825 22.2067 122.685 22.16 122.522 22.16C122.382 22.1367 122.242 22.16 122.102 22.23C121.962 22.3 121.892 22.405 121.892 22.545C121.845 23.4083 121.728 24.225 121.542 24.995C121.355 25.765 121.063 26.57 120.667 27.41ZM148.336 30.245C148.29 31.1083 148.231 31.9717 148.161 32.835C148.091 33.6983 148.021 34.5617 147.951 35.425C147.881 36.0783 147.741 36.685 147.531 37.245C147.321 37.8283 147.018 38.33 146.621 38.75C146.248 39.17 145.781 39.4967 145.221 39.73C144.685 39.9867 144.055 40.115 143.331 40.115C142.585 40.115 141.931 39.9867 141.371 39.73C140.835 39.4967 140.368 39.17 139.971 38.75C139.598 38.33 139.306 37.8283 139.096 37.245C138.886 36.685 138.746 36.0783 138.676 35.425C138.326 32.0883 138.151 28.6933 138.151 25.24C138.175 21.7867 138.35 18.3917 138.676 15.055C138.77 14.215 138.968 13.5033 139.271 12.92C139.575 12.3367 139.96 11.8583 140.426 11.485C140.893 11.1117 141.418 10.8317 142.001 10.645C142.608 10.435 143.25 10.2833 143.926 10.19C144.743 10.0967 145.571 10.0267 146.411 9.98C147.275 9.91 148.115 9.875 148.931 9.875C150.565 9.85167 152.175 9.945 153.761 10.155C155.371 10.365 156.806 10.82 158.066 11.52C159.35 12.22 160.376 13.2467 161.146 14.6C161.94 15.9533 162.336 17.7617 162.336 20.025C162.336 21.6117 162.15 22.965 161.776 24.085C161.426 25.205 160.925 26.15 160.271 26.92C159.641 27.6667 158.883 28.2733 157.996 28.74C157.133 29.1833 156.176 29.5217 155.126 29.755C154.1 29.9883 153.003 30.14 151.836 30.21C150.693 30.2567 149.526 30.2683 148.336 30.245ZM148.336 20.76C149.783 21.5067 151.335 21.7983 152.991 21.635C153.201 21.6117 153.341 21.53 153.411 21.39C153.505 21.25 153.551 21.11 153.551 20.97C153.551 20.8067 153.505 20.6667 153.411 20.55C153.341 20.4333 153.236 20.375 153.096 20.375C152.233 20.4217 151.463 20.375 150.786 20.235C150.11 20.095 149.398 19.8617 148.651 19.535C148.511 19.465 148.383 19.4767 148.266 19.57C148.15 19.64 148.056 19.745 147.986 19.885C147.94 20.025 147.94 20.1883 147.986 20.375C148.033 20.5383 148.15 20.6667 148.336 20.76ZM174.429 19.15C173.053 18.8 172.224 18.275 171.944 17.575C171.664 16.8517 171.711 16.035 172.084 15.125C172.248 14.7283 172.434 14.3783 172.644 14.075C172.854 13.7483 173.111 13.5033 173.414 13.34C173.741 13.1533 174.114 13.06 174.534 13.06C174.978 13.06 175.503 13.1767 176.109 13.41C176.086 12.0567 176.366 11.135 176.949 10.645C177.533 10.1317 178.326 9.875 179.329 9.875C180.333 9.875 181.114 10.1317 181.674 10.645C182.258 11.135 182.538 12.0567 182.514 13.41C183.121 13.1767 183.634 13.06 184.054 13.06C184.498 13.06 184.871 13.1533 185.174 13.34C185.501 13.5033 185.769 13.7483 185.979 14.075C186.189 14.3783 186.388 14.7283 186.574 15.125C186.924 16.035 186.948 16.8517 186.644 17.575C186.364 18.275 185.548 18.8 184.194 19.15C184.568 19.5467 184.836 19.9667 184.999 20.41C185.186 20.8533 185.256 21.285 185.209 21.705C185.186 22.125 185.058 22.5217 184.824 22.895C184.591 23.245 184.264 23.56 183.844 23.84C183.028 24.3767 182.211 24.5283 181.394 24.295C180.578 24.0617 179.889 23.525 179.329 22.685C178.746 23.525 178.046 24.0617 177.229 24.295C176.413 24.5283 175.596 24.3767 174.779 23.84C174.359 23.56 174.033 23.245 173.799 22.895C173.566 22.5217 173.426 22.125 173.379 21.705C173.356 21.285 173.426 20.8533 173.589 20.41C173.776 19.9667 174.056 19.5467 174.429 19.15Z" fill="#98FF47"/>
</svg>
