<svg width="81" height="14" viewBox="0 0 81 14" fill="none" xmlns="http://www.w3.org/2000/svg">
<path d="M6.63 13.455C5.44 13.455 4.445 13.285 3.645 12.945C2.855 12.605 2.22 12.14 1.74 11.55C1.27 10.95 0.935 10.255 0.735 9.465C0.535 8.665 0.435 7.815 0.435 6.915C0.435 6.015 0.535 5.17 0.735 4.38C0.935 3.58 1.27 2.885 1.74 2.295C2.22 1.705 2.855 1.24 3.645 0.9C4.445 0.55 5.44 0.374999 6.63 0.374999C7.32 0.374999 7.94 0.429999 8.49 0.539999C9.05 0.649999 9.54 0.82 9.96 1.05C10.26 1.2 10.485 1.39 10.635 1.62C10.795 1.85 10.895 2.1 10.935 2.37C10.985 2.63 10.98 2.9 10.92 3.18C10.86 3.45 10.76 3.71 10.62 3.96C10.48 4.22 10.305 4.455 10.095 4.665C9.885 4.875 9.65 5.04 9.39 5.16C9.14 5.27 8.87 5.33 8.58 5.34C8.3 5.34 8.01 5.265 7.71 5.115C7.58 5.045 7.425 4.99 7.245 4.95C7.065 4.9 6.86 4.875 6.63 4.875C6.27 4.875 5.965 4.93 5.715 5.04C5.465 5.15 5.26 5.3 5.1 5.49C4.95 5.68 4.835 5.895 4.755 6.135C4.685 6.375 4.65 6.63 4.65 6.9C4.65 7.17 4.685 7.43 4.755 7.68C4.835 7.93 4.95 8.15 5.1 8.34C5.26 8.53 5.465 8.68 5.715 8.79C5.965 8.9 6.27 8.955 6.63 8.955C6.86 8.955 7.065 8.935 7.245 8.895C7.425 8.845 7.58 8.785 7.71 8.715C8.01 8.565 8.305 8.495 8.595 8.505C8.895 8.505 9.175 8.57 9.435 8.7C9.695 8.83 9.925 9.005 10.125 9.225C10.335 9.435 10.51 9.675 10.65 9.945C10.78 10.195 10.87 10.455 10.92 10.725C10.97 10.995 10.97 11.26 10.92 11.52C10.88 11.77 10.78 12.005 10.62 12.225C10.46 12.455 10.24 12.645 9.96 12.795C9.54 13.025 9.05 13.19 8.49 13.29C7.94 13.4 7.32 13.455 6.63 13.455ZM16.08 10.785C16.09 11.085 16.07 11.385 16.02 11.685C15.97 11.985 15.865 12.26 15.705 12.51C15.545 12.76 15.325 12.96 15.045 13.11C14.765 13.27 14.41 13.35 13.98 13.35C13.4 13.35 12.92 13.18 12.54 12.84C12.16 12.5 11.95 12.04 11.91 11.46C11.85 9.99 11.82 8.48 11.82 6.93C11.82 6.03 11.895 5.195 12.045 4.425C12.195 3.645 12.46 2.965 12.84 2.385C13.22 1.805 13.73 1.35 14.37 1.02C15.02 0.689999 15.835 0.524999 16.815 0.524999C17.805 0.524999 18.62 0.689999 19.26 1.02C19.91 1.35 20.425 1.805 20.805 2.385C21.185 2.965 21.45 3.645 21.6 4.425C21.76 5.195 21.84 6.03 21.84 6.93C21.84 7.7 21.83 8.465 21.81 9.225C21.8 9.975 21.775 10.72 21.735 11.46C21.705 12.04 21.495 12.5 21.105 12.84C20.725 13.18 20.24 13.35 19.65 13.35C19.22 13.35 18.865 13.27 18.585 13.11C18.315 12.96 18.1 12.76 17.94 12.51C17.78 12.26 17.67 11.985 17.61 11.685C17.55 11.375 17.53 11.075 17.55 10.785C17.39 10.825 17.255 10.855 17.145 10.875C17.035 10.895 16.925 10.905 16.815 10.905C16.715 10.905 16.605 10.895 16.485 10.875C16.375 10.855 16.24 10.825 16.08 10.785ZM18.105 6.69C17.805 6.46 17.465 6.31 17.085 6.24C16.715 6.17 16.34 6.125 15.96 6.105C15.87 6.105 15.805 6.13 15.765 6.18C15.725 6.23 15.7 6.29 15.69 6.36C15.68 6.43 15.69 6.495 15.72 6.555C15.76 6.605 15.81 6.635 15.87 6.645C16.24 6.665 16.585 6.715 16.905 6.795C17.235 6.875 17.575 7.01 17.925 7.2C17.975 7.23 18.025 7.23 18.075 7.2C18.125 7.16 18.165 7.11 18.195 7.05C18.225 6.99 18.235 6.925 18.225 6.855C18.215 6.785 18.175 6.73 18.105 6.69ZM28.8921 9.66C28.9421 9.71 29.0121 9.715 29.1021 9.675C29.1921 9.635 29.2171 9.565 29.1771 9.465C29.0371 9.155 28.8571 8.835 28.6371 8.505C28.4171 8.175 28.1621 7.87 27.8721 7.59C27.5821 7.3 27.2571 7.055 26.8971 6.855C26.5471 6.655 26.1671 6.525 25.7571 6.465C24.8971 6.325 24.2171 6.025 23.7171 5.565C23.2171 5.095 22.9671 4.42 22.9671 3.54C22.9671 3.06 23.0871 2.625 23.3271 2.235C23.5771 1.845 23.9171 1.515 24.3471 1.245C24.7771 0.964999 25.2871 0.749999 25.8771 0.599999C26.4671 0.449999 27.1071 0.374999 27.7971 0.374999C28.3171 0.374999 28.8771 0.429999 29.4771 0.539999C30.0771 0.64 30.6271 0.81 31.1271 1.05C31.6271 1.29 32.0371 1.605 32.3571 1.995C32.6771 2.385 32.8171 2.865 32.7771 3.435C32.7571 3.805 32.6771 4.12 32.5371 4.38C32.4071 4.63 32.2371 4.835 32.0271 4.995C31.8171 5.145 31.5821 5.255 31.3221 5.325C31.0621 5.395 30.7971 5.43 30.5271 5.43C30.1171 5.43 29.7471 5.335 29.4171 5.145C29.0971 4.955 28.7871 4.73 28.4871 4.47C28.3271 4.33 28.1771 4.2 28.0371 4.08C27.8971 3.96 27.7571 3.84 27.6171 3.72C27.4871 3.6 27.3471 3.475 27.1971 3.345C27.0571 3.215 26.9071 3.07 26.7471 2.91C26.6871 2.85 26.6321 2.82 26.5821 2.82C26.5321 2.82 26.4871 2.84 26.4471 2.88C26.4171 2.91 26.4021 2.95 26.4021 3C26.4021 3.05 26.4271 3.1 26.4771 3.15C26.6671 3.36 26.8871 3.595 27.1371 3.855C27.3871 4.105 27.6821 4.365 28.0221 4.635C28.3621 4.905 28.7521 5.175 29.1921 5.445C29.6321 5.715 30.1371 5.965 30.7071 6.195C31.0371 6.335 31.3571 6.515 31.6671 6.735C31.9871 6.945 32.2621 7.205 32.4921 7.515C32.7221 7.825 32.8971 8.185 33.0171 8.595C33.1471 9.005 33.1921 9.47 33.1521 9.99C33.1121 10.54 32.9471 11.03 32.6571 11.46C32.3771 11.89 32.0071 12.25 31.5471 12.54C31.0871 12.84 30.5571 13.065 29.9571 13.215C29.3671 13.375 28.7421 13.455 28.0821 13.455C27.4021 13.455 26.7621 13.375 26.1621 13.215C25.5721 13.065 25.0471 12.84 24.5871 12.54C24.1371 12.24 23.7621 11.87 23.4621 11.43C23.1721 10.99 22.9821 10.485 22.8921 9.915C22.8321 9.515 22.8221 9.125 22.8621 8.745C22.9121 8.365 23.0221 8.025 23.1921 7.725C23.3721 7.425 23.6221 7.185 23.9421 7.005C24.2621 6.825 24.6721 6.735 25.1721 6.735C25.6421 6.735 26.0621 6.825 26.4321 7.005C26.8121 7.175 27.1521 7.4 27.4521 7.68C27.7521 7.95 28.0171 8.26 28.2471 8.61C28.4771 8.96 28.6921 9.31 28.8921 9.66ZM38.5385 9.285C38.5185 9.635 38.4935 9.98 38.4635 10.32C38.4435 10.66 38.4135 11 38.3735 11.34C38.3435 11.62 38.2835 11.88 38.1935 12.12C38.1035 12.37 37.9735 12.585 37.8035 12.765C37.6435 12.945 37.4435 13.085 37.2035 13.185C36.9735 13.295 36.7035 13.35 36.3935 13.35C36.0735 13.35 35.7935 13.295 35.5535 13.185C35.3235 13.085 35.1235 12.945 34.9535 12.765C34.7935 12.585 34.6685 12.37 34.5785 12.12C34.4885 11.88 34.4285 11.62 34.3985 11.34C34.2485 9.91 34.1735 8.44 34.1735 6.93C34.1735 5.42 34.2485 3.95 34.3985 2.52C34.4285 2.24 34.4885 1.98 34.5785 1.74C34.6685 1.5 34.7935 1.29 34.9535 1.11C35.1235 0.93 35.3235 0.79 35.5535 0.69C35.7935 0.58 36.0735 0.524999 36.3935 0.524999C36.7035 0.524999 36.9735 0.58 37.2035 0.69C37.4435 0.79 37.6435 0.93 37.8035 1.11C37.9735 1.29 38.1035 1.5 38.1935 1.74C38.2835 1.98 38.3435 2.24 38.3735 2.52C38.4135 2.86 38.4435 3.2 38.4635 3.54C38.4935 3.88 38.5185 4.225 38.5385 4.575C38.9185 4.485 39.3135 4.44 39.7235 4.44C40.1335 4.43 40.5285 4.47 40.9085 4.56C40.9285 4.21 40.9485 3.87 40.9685 3.54C40.9985 3.2 41.0335 2.86 41.0735 2.52C41.1035 2.24 41.1635 1.98 41.2535 1.74C41.3535 1.5 41.4835 1.29 41.6435 1.11C41.8035 0.93 41.9985 0.79 42.2285 0.69C42.4685 0.58 42.7435 0.524999 43.0535 0.524999C43.3635 0.524999 43.6385 0.58 43.8785 0.69C44.1185 0.79 44.3185 0.93 44.4785 1.11C44.6485 1.29 44.7785 1.5 44.8685 1.74C44.9685 1.98 45.0335 2.24 45.0635 2.52C45.2035 3.95 45.2735 5.42 45.2735 6.93C45.2735 8.44 45.2035 9.91 45.0635 11.34C45.0335 11.62 44.9685 11.88 44.8685 12.12C44.7785 12.37 44.6485 12.585 44.4785 12.765C44.3185 12.945 44.1185 13.085 43.8785 13.185C43.6385 13.295 43.3635 13.35 43.0535 13.35C42.7435 13.35 42.4685 13.295 42.2285 13.185C41.9985 13.085 41.8035 12.945 41.6435 12.765C41.4835 12.585 41.3535 12.37 41.2535 12.12C41.1635 11.88 41.1035 11.62 41.0735 11.34C41.0335 11 40.9985 10.665 40.9685 10.335C40.9485 9.995 40.9285 9.65 40.9085 9.3C40.5285 9.39 40.1335 9.435 39.7235 9.435C39.3135 9.425 38.9185 9.375 38.5385 9.285ZM52.2543 13.455C51.2143 13.455 50.3193 13.3 49.5693 12.99C48.8193 12.69 48.1993 12.26 47.7093 11.7C47.2293 11.13 46.8693 10.445 46.6293 9.645C46.3993 8.835 46.2843 7.925 46.2843 6.915C46.2843 5.905 46.3893 5 46.5993 4.2C46.8093 3.39 47.1493 2.705 47.6193 2.145C48.0893 1.575 48.7043 1.14 49.4643 0.84C50.2243 0.53 51.1543 0.374999 52.2543 0.374999C53.3543 0.374999 54.2843 0.53 55.0443 0.84C55.8043 1.14 56.4193 1.575 56.8893 2.145C57.3593 2.705 57.6993 3.39 57.9093 4.2C58.1193 5 58.2243 5.905 58.2243 6.915C58.2243 7.925 58.1043 8.835 57.8643 9.645C57.6343 10.445 57.2743 11.13 56.7843 11.7C56.3043 12.26 55.6843 12.69 54.9243 12.99C54.1743 13.3 53.2843 13.455 52.2543 13.455ZM51.7143 7.89C51.6743 7.94 51.6693 7.99 51.6993 8.04C51.7293 8.09 51.7743 8.125 51.8343 8.145C51.8943 8.165 51.9593 8.17 52.0293 8.16C52.1093 8.15 52.1743 8.115 52.2243 8.055C52.4343 7.755 52.5743 7.415 52.6443 7.035C52.7143 6.655 52.7543 6.275 52.7643 5.895C52.7643 5.805 52.7393 5.74 52.6893 5.7C52.6393 5.66 52.5793 5.64 52.5093 5.64C52.4493 5.63 52.3893 5.64 52.3293 5.67C52.2693 5.7 52.2393 5.745 52.2393 5.805C52.2193 6.175 52.1693 6.525 52.0893 6.855C52.0093 7.185 51.8843 7.53 51.7143 7.89ZM63.5727 9.105C63.5527 9.475 63.5277 9.845 63.4977 10.215C63.4677 10.585 63.4377 10.955 63.4077 11.325C63.3777 11.605 63.3177 11.865 63.2277 12.105C63.1377 12.355 63.0077 12.57 62.8377 12.75C62.6777 12.93 62.4777 13.07 62.2377 13.17C62.0077 13.28 61.7377 13.335 61.4277 13.335C61.1077 13.335 60.8277 13.28 60.5877 13.17C60.3577 13.07 60.1577 12.93 59.9877 12.75C59.8277 12.57 59.7027 12.355 59.6127 12.105C59.5227 11.865 59.4627 11.605 59.4327 11.325C59.2827 9.895 59.2077 8.44 59.2077 6.96C59.2177 5.48 59.2927 4.025 59.4327 2.595C59.4727 2.235 59.5577 1.93 59.6877 1.68C59.8177 1.43 59.9827 1.225 60.1827 1.065C60.3827 0.904999 60.6077 0.784999 60.8577 0.705C61.1177 0.615 61.3927 0.55 61.6827 0.51C62.0327 0.469999 62.3877 0.44 62.7477 0.42C63.1177 0.39 63.4777 0.374999 63.8277 0.374999C64.5277 0.365 65.2177 0.405 65.8977 0.495C66.5877 0.585 67.2027 0.78 67.7427 1.08C68.2927 1.38 68.7327 1.82 69.0627 2.4C69.4027 2.98 69.5727 3.755 69.5727 4.725C69.5727 5.405 69.4927 5.985 69.3327 6.465C69.1827 6.945 68.9677 7.35 68.6877 7.68C68.4177 8 68.0927 8.26 67.7127 8.46C67.3427 8.65 66.9327 8.795 66.4827 8.895C66.0427 8.995 65.5727 9.06 65.0727 9.09C64.5827 9.11 64.0827 9.115 63.5727 9.105ZM63.5727 5.04C64.1927 5.36 64.8577 5.485 65.5677 5.415C65.6577 5.405 65.7177 5.37 65.7477 5.31C65.7877 5.25 65.8077 5.19 65.8077 5.13C65.8077 5.06 65.7877 5 65.7477 4.95C65.7177 4.9 65.6727 4.875 65.6127 4.875C65.2427 4.895 64.9127 4.875 64.6227 4.815C64.3327 4.755 64.0277 4.655 63.7077 4.515C63.6477 4.485 63.5927 4.49 63.5427 4.53C63.4927 4.56 63.4527 4.605 63.4227 4.665C63.4027 4.725 63.4027 4.795 63.4227 4.875C63.4427 4.945 63.4927 5 63.5727 5.04ZM74.7554 4.35C74.1654 4.2 73.8104 3.975 73.6904 3.675C73.5704 3.365 73.5904 3.015 73.7504 2.625C73.8204 2.455 73.9004 2.305 73.9904 2.175C74.0804 2.035 74.1904 1.93 74.3204 1.86C74.4604 1.78 74.6204 1.74 74.8004 1.74C74.9904 1.74 75.2154 1.79 75.4754 1.89C75.4654 1.31 75.5854 0.914999 75.8354 0.705C76.0854 0.485 76.4254 0.374999 76.8554 0.374999C77.2854 0.374999 77.6204 0.485 77.8604 0.705C78.1104 0.914999 78.2304 1.31 78.2204 1.89C78.4804 1.79 78.7004 1.74 78.8804 1.74C79.0704 1.74 79.2304 1.78 79.3604 1.86C79.5004 1.93 79.6154 2.035 79.7054 2.175C79.7954 2.305 79.8804 2.455 79.9604 2.625C80.1104 3.015 80.1204 3.365 79.9904 3.675C79.8704 3.975 79.5204 4.2 78.9404 4.35C79.1004 4.52 79.2154 4.7 79.2854 4.89C79.3654 5.08 79.3954 5.265 79.3754 5.445C79.3654 5.625 79.3104 5.795 79.2104 5.955C79.1104 6.105 78.9704 6.24 78.7904 6.36C78.4404 6.59 78.0904 6.655 77.7404 6.555C77.3904 6.455 77.0954 6.225 76.8554 5.865C76.6054 6.225 76.3054 6.455 75.9554 6.555C75.6054 6.655 75.2554 6.59 74.9054 6.36C74.7254 6.24 74.5854 6.105 74.4854 5.955C74.3854 5.795 74.3254 5.625 74.3054 5.445C74.2954 5.265 74.3254 5.08 74.3954 4.89C74.4754 4.7 74.5954 4.52 74.7554 4.35Z" fill="white"/>
</svg>
