<svg width="57" height="53" viewBox="0 0 57 53" fill="none" xmlns="http://www.w3.org/2000/svg">
<path d="M12.92 10.8C12.1333 10.6 11.66 10.3 11.5 9.9C11.34 9.48667 11.3667 9.02 11.58 8.5C11.6733 8.27333 11.78 8.07333 11.9 7.9C12.02 7.71333 12.1667 7.57333 12.34 7.48C12.5267 7.37333 12.74 7.32 12.98 7.32C13.2333 7.32 13.5333 7.38667 13.88 7.52C13.8667 6.74667 14.0267 6.22 14.36 5.94C14.6933 5.64667 15.1467 5.5 15.72 5.5C16.2933 5.5 16.74 5.64667 17.06 5.94C17.3933 6.22 17.5533 6.74667 17.54 7.52C17.8867 7.38667 18.18 7.32 18.42 7.32C18.6733 7.32 18.8867 7.37333 19.06 7.48C19.2467 7.57333 19.4 7.71333 19.52 7.9C19.64 8.07333 19.7533 8.27333 19.86 8.5C20.06 9.02 20.0733 9.48667 19.9 9.9C19.74 10.3 19.2733 10.6 18.5 10.8C18.7133 11.0267 18.8667 11.2667 18.96 11.52C19.0667 11.7733 19.1067 12.02 19.08 12.26C19.0667 12.5 18.9933 12.7267 18.86 12.94C18.7267 13.14 18.54 13.32 18.3 13.48C17.8333 13.7867 17.3667 13.8733 16.9 13.74C16.4333 13.6067 16.04 13.3 15.72 12.82C15.3867 13.3 14.9867 13.6067 14.52 13.74C14.0533 13.8733 13.5867 13.7867 13.12 13.48C12.88 13.32 12.6933 13.14 12.56 12.94C12.4267 12.7267 12.3467 12.5 12.32 12.26C12.3067 12.02 12.3467 11.7733 12.44 11.52C12.5467 11.2667 12.7067 11.0267 12.92 10.8Z" fill="#6346FF"/>
<path d="M36.92 10.8C36.1333 10.6 35.66 10.3 35.5 9.9C35.34 9.48667 35.3667 9.02 35.58 8.5C35.6733 8.27333 35.78 8.07333 35.9 7.9C36.02 7.71333 36.1667 7.57333 36.34 7.48C36.5267 7.37333 36.74 7.32 36.98 7.32C37.2333 7.32 37.5333 7.38667 37.88 7.52C37.8667 6.74667 38.0267 6.22 38.36 5.94C38.6933 5.64667 39.1467 5.5 39.72 5.5C40.2933 5.5 40.74 5.64667 41.06 5.94C41.3933 6.22 41.5533 6.74667 41.54 7.52C41.8867 7.38667 42.18 7.32 42.42 7.32C42.6733 7.32 42.8867 7.37333 43.06 7.48C43.2467 7.57333 43.4 7.71333 43.52 7.9C43.64 8.07333 43.7533 8.27333 43.86 8.5C44.06 9.02 44.0733 9.48667 43.9 9.9C43.74 10.3 43.2733 10.6 42.5 10.8C42.7133 11.0267 42.8667 11.2667 42.96 11.52C43.0667 11.7733 43.1067 12.02 43.08 12.26C43.0667 12.5 42.9933 12.7267 42.86 12.94C42.7267 13.14 42.54 13.32 42.3 13.48C41.8333 13.7867 41.3667 13.8733 40.9 13.74C40.4333 13.6067 40.04 13.3 39.72 12.82C39.3867 13.3 38.9867 13.6067 38.52 13.74C38.0533 13.8733 37.5867 13.7867 37.12 13.48C36.88 13.32 36.6933 13.14 36.56 12.94C36.4267 12.7267 36.3467 12.5 36.32 12.26C36.3067 12.02 36.3467 11.7733 36.44 11.52C36.5467 11.2667 36.7067 11.0267 36.92 10.8Z" fill="#6346FF"/>
<path d="M21.126 34.895C21.068 37.3697 20.952 39.7477 20.778 42.029C20.6813 43.189 20.372 44.0493 19.85 44.61C19.3473 45.1707 18.6803 45.451 17.849 45.451C16.9597 45.451 16.2443 45.1223 15.703 44.465C15.181 43.8077 14.9877 42.841 15.123 41.565C15.3937 38.491 15.529 35.4363 15.529 32.401C15.5483 29.3657 15.4227 26.3787 15.152 23.44C15.0167 22.0093 15.21 20.9653 15.732 20.308C16.254 19.6313 16.9597 19.293 17.849 19.293C18.6803 19.293 19.3473 19.5733 19.85 20.134C20.372 20.6947 20.6813 21.555 20.778 22.715C20.894 24.165 20.981 25.644 21.039 27.152L22.199 27.239C22.1603 26.5623 22.112 25.8953 22.054 25.238C22.0153 24.5613 21.967 23.8847 21.909 23.208C21.7737 21.7773 21.967 20.714 22.489 20.018C23.011 19.322 23.7263 18.974 24.635 18.974C25.447 18.974 26.114 19.264 26.636 19.844C27.158 20.424 27.4673 21.3133 27.564 22.512C27.796 25.6633 27.912 28.9307 27.912 32.314C27.912 35.6973 27.796 38.9743 27.564 42.145C27.4673 43.305 27.158 44.175 26.636 44.755C26.114 45.335 25.447 45.625 24.635 45.625C23.7263 45.625 23.0013 45.2963 22.46 44.639C21.938 43.9817 21.7447 42.9957 21.88 41.681C21.9767 40.521 22.054 39.3803 22.112 38.259C22.17 37.1183 22.2183 35.968 22.257 34.808L21.126 34.895ZM7.177 44.958C6.34567 44.7647 5.65933 44.3973 5.118 43.856C4.57667 43.334 4.19 42.725 3.958 42.029C3.726 41.333 3.64867 40.5983 3.726 39.825C3.80333 39.0323 4.045 38.2687 4.451 37.534C4.87633 36.78 5.44667 36.055 6.162 35.359C6.87733 34.6437 7.79567 34.0347 8.917 33.532C9.11033 33.4547 9.22633 33.3387 9.265 33.184C9.323 33.0293 9.31333 32.894 9.236 32.778C9.15867 32.662 9.033 32.5943 8.859 32.575C8.70433 32.5363 8.52067 32.5847 8.308 32.72C7.80533 33.0487 7.27367 33.3097 6.713 33.503C6.17167 33.677 5.60133 33.8123 5.002 33.909C3.57133 34.0637 2.57567 33.909 2.015 33.445C1.47367 32.9617 1.22233 32.1497 1.261 31.009C1.29967 29.9843 1.61867 29.269 2.218 28.863C2.81733 28.4377 3.71633 28.225 4.915 28.225C5.12767 28.225 5.38867 28.225 5.698 28.225C6.00733 28.225 6.34567 28.2347 6.713 28.254C7.08033 28.254 7.44767 28.2637 7.815 28.283C8.20167 28.283 8.569 28.2927 8.917 28.312C9.149 28.312 9.323 28.254 9.439 28.138C9.555 28.022 9.613 27.8963 9.613 27.761C9.613 27.6063 9.555 27.471 9.439 27.355C9.323 27.239 9.149 27.181 8.917 27.181H3.755C2.80767 27.181 2.06333 26.8813 1.522 26.282C1 25.6633 0.739 24.6483 0.739 23.237C0.739 22.251 1 21.468 1.522 20.888C2.06333 20.308 2.80767 19.902 3.755 19.67C4.72167 19.4187 5.74633 19.293 6.829 19.293C7.931 19.293 8.99433 19.4187 10.019 19.67C10.599 19.8053 11.1017 20.0083 11.527 20.279C11.9523 20.5303 12.3197 20.8783 12.629 21.323C12.9577 21.7483 13.238 22.28 13.47 22.918C13.702 23.5367 13.905 24.2907 14.079 25.18C14.2723 26.1853 14.4077 27.2873 14.485 28.486C14.5817 29.6653 14.6203 30.864 14.601 32.082C14.5817 33.3 14.5237 34.4987 14.427 35.678C14.3497 36.838 14.2337 37.9013 14.079 38.868C13.905 39.97 13.5763 40.9367 13.093 41.768C12.629 42.5993 12.078 43.276 11.44 43.798C10.8213 44.3393 10.135 44.7067 9.381 44.9C8.64633 45.1127 7.91167 45.132 7.177 44.958ZM52.1327 32.749C51.804 33.1357 51.3787 33.416 50.8567 33.59C50.354 33.764 49.7837 33.851 49.1457 33.851C48.5657 33.851 48.034 33.793 47.5507 33.677C47.0867 33.5417 46.6903 33.3483 46.3617 33.097C46.0523 32.8263 45.8203 32.488 45.6657 32.082C45.5303 31.676 45.5013 31.2023 45.5787 30.661C45.6947 29.8683 45.772 29.1337 45.8107 28.457C45.8687 27.7803 45.8977 27.123 45.8977 26.485C45.8977 25.8277 45.8687 25.1703 45.8107 24.513C45.772 23.8557 45.7043 23.15 45.6077 22.396C45.4337 21.1973 45.685 20.3273 46.3617 19.786C47.0383 19.2447 47.9663 18.974 49.1457 18.974C49.9577 18.974 50.6633 19.1287 51.2627 19.438C51.862 19.728 52.297 20.1823 52.5677 20.801L53.9307 20.656C54.6073 20.5593 55.1293 20.7527 55.4967 21.236C55.864 21.7 56.0477 22.4733 56.0477 23.556C56.0477 24.6 55.864 25.3637 55.4967 25.847C55.1293 26.311 54.6073 26.4947 53.9307 26.398L53.2347 26.311V27.239L53.9307 27.181C54.6073 27.1037 55.1293 27.297 55.4967 27.761C55.864 28.225 56.0477 28.9887 56.0477 30.052C56.0477 31.096 55.864 31.8597 55.4967 32.343C55.1293 32.807 54.6073 33.01 53.9307 32.952L52.1327 32.749ZM28.8747 29.298C28.8167 27.964 28.9423 26.9393 29.2517 26.224C29.5803 25.4893 30.1507 24.8997 30.9627 24.455C31.33 24.2617 31.649 24.0683 31.9197 23.875C32.2097 23.6817 32.4513 23.469 32.6447 23.237C32.8573 23.005 33.012 22.744 33.1087 22.454C33.2247 22.1447 33.2827 21.7967 33.2827 21.41C33.2827 20.5013 33.563 19.873 34.1237 19.525C34.7037 19.1577 35.651 18.974 36.9657 18.974C38.1643 18.974 39.0633 19.1577 39.6627 19.525C40.262 19.873 40.5617 20.482 40.5617 21.352C40.5617 21.7 40.639 22.019 40.7937 22.309C40.9483 22.5797 41.1513 22.8407 41.4027 23.092C41.6733 23.324 41.973 23.556 42.3017 23.788C42.6497 24.0007 43.0073 24.223 43.3747 24.455C43.6453 24.629 43.8967 24.8417 44.1287 25.093C44.3607 25.3443 44.554 25.6633 44.7087 26.05C44.8633 26.4367 44.9697 26.9103 45.0277 27.471C45.105 28.0317 45.1243 28.6987 45.0857 29.472C45.0277 30.3227 44.9213 31.009 44.7667 31.531C44.6313 32.053 44.438 32.459 44.1867 32.749C43.9353 33.039 43.6163 33.2323 43.2297 33.329C42.8623 33.4257 42.4273 33.474 41.9247 33.474C41.2673 33.474 40.7163 33.4353 40.2717 33.358C39.827 33.2613 39.4597 33.068 39.1697 32.778C38.899 32.488 38.7057 32.082 38.5897 31.56C38.4737 31.038 38.4157 30.342 38.4157 29.472C38.4157 28.4473 38.319 27.5967 38.1257 26.92C37.9323 26.224 37.5457 25.5957 36.9657 25.035C36.811 24.8803 36.666 24.7933 36.5307 24.774C36.3953 24.7353 36.2793 24.745 36.1827 24.803C36.1053 24.861 36.057 24.9383 36.0377 25.035C36.0377 25.1317 36.1053 25.238 36.2407 25.354C36.6853 25.7987 37.014 26.3497 37.2267 27.007C37.4393 27.6643 37.5457 28.573 37.5457 29.733C37.5457 30.5257 37.4683 31.1637 37.3137 31.647C37.1783 32.1303 36.9463 32.5073 36.6177 32.778C36.289 33.0293 35.854 33.2033 35.3127 33.3C34.7907 33.3773 34.1333 33.416 33.3407 33.416C31.9873 33.416 30.9143 33.1067 30.1217 32.488C29.3483 31.85 28.9327 30.7867 28.8747 29.298ZM40.0107 37.07C40.5133 37.012 40.9773 36.983 41.4027 36.983C41.8473 36.983 42.321 37.012 42.8237 37.07V36.316C42.8237 35.8713 43.046 35.504 43.4907 35.214C43.9547 34.9047 44.5347 34.6727 45.2307 34.518C45.9267 34.3633 46.6807 34.2957 47.4927 34.315C48.324 34.315 49.107 34.402 49.8417 34.576C50.5763 34.75 51.2143 35.0207 51.7557 35.388C52.3163 35.736 52.6643 36.171 52.7997 36.693C53.0703 37.7177 53.2057 38.781 53.2057 39.883C53.225 40.9657 53.0897 41.9807 52.7997 42.928C52.587 43.6433 52.094 44.204 51.3207 44.61C50.5473 45.0353 49.5517 45.2963 48.3337 45.393C45.9943 45.6057 43.6937 45.712 41.4317 45.712C39.1697 45.712 36.8593 45.6057 34.5007 45.393C33.2827 45.2963 32.287 45.0353 31.5137 44.61C30.7597 44.204 30.2763 43.6433 30.0637 42.928C29.793 41.9807 29.6577 40.9657 29.6577 39.883C29.6577 38.781 29.793 37.7177 30.0637 36.693C30.199 36.171 30.5373 35.736 31.0787 35.388C31.62 35.0207 32.258 34.75 32.9927 34.576C33.7273 34.402 34.5103 34.315 35.3417 34.315C36.173 34.2957 36.927 34.3633 37.6037 34.518C38.2997 34.6727 38.87 34.9047 39.3147 35.214C39.7787 35.504 40.0107 35.8713 40.0107 36.316V37.07ZM39.3147 41.246C39.972 41.6133 40.668 41.797 41.4027 41.797C42.1373 41.7777 42.8333 41.594 43.4907 41.246C43.6067 41.188 43.6937 41.1107 43.7517 41.014C43.829 40.898 43.8387 40.7627 43.7807 40.608C43.742 40.5113 43.655 40.4243 43.5197 40.347C43.4037 40.2697 43.2877 40.2697 43.1717 40.347C42.6303 40.637 42.0213 40.782 41.3447 40.782C40.6873 40.7627 40.1073 40.608 39.6047 40.318C39.508 40.26 39.392 40.2503 39.2567 40.289C39.1213 40.3277 39.015 40.4147 38.9377 40.55C38.8603 40.7047 38.8507 40.84 38.9087 40.956C38.986 41.0527 39.1213 41.1493 39.3147 41.246Z" fill="#98FF47"/>
</svg>
